# xmcd
#
# Track frame offsets:
#	150
#	13587
#	30137
#	47650
#	64435
#	78967
#	92910
#	109645
#	126305
#	143242
#	157015
#	173622
#
# Disc length: 2525 seconds
# Revision: 3
# Processed by: cddbd v1.5.2PL0 Copyright (c) Steve Scherf et al.
# Submitted via: dBpowerAMP V12.0
#
DISCID=9509db0c
DTITLE=Matraca Berg - Lying To The Moon and Other Stories
DYEAR=1999
DGENRE=Country
TTITLE0=The Things You Left Undone
TTITLE1=I Got It Bad
TTITLE2=Lying To The Moon
TTITLE3=Calico Plains
TTITLE4=Baby, Walk On
TTITLE5=Back In The Saddle
TTITLE6=Appalachian Rain
TTITLE7=Back When We Were Beautiful
TTITLE8=Along For The Ride
TTITLE9=I Must Have Been Crazy
TTITLE10=Alice In The Looking Glass
TTITLE11=Eat At Joe's
EXTD=
EXTT0=
EXTT1=
EXTT2=
EXTT3=
EXTT4=
EXTT5=
EXTT6=
EXTT7=
EXTT8=
EXTT9=
EXTT10=
EXTT11=
PLAYORDER=
